<?xml version="1.0" encoding="utf-8"?>
<!-- Generator: Adobe Illustrator 16.0.0, SVG Export Plug-In . SVG Version: 6.00 Build 0)  -->
<!DOCTYPE svg PUBLIC "-//W3C//DTD SVG 1.1//EN" "http://www.w3.org/Graphics/SVG/1.1/DTD/svg11.dtd">
<svg version="1.1" id="Livello_1" xmlns="http://www.w3.org/2000/svg" xmlns:xlink="http://www.w3.org/1999/xlink" x="0px" y="0px"
	 width="307.46px" height="128.424px" viewBox="0 0 307.46 128.424" enable-background="new 0 0 307.46 128.424"
	 xml:space="preserve">

<style>
	.qnlogo {}
</style>

	 
<path fill-rule="evenodd" clip-rule="evenodd" d="M220.585,113.44c-0.532,0-1.011-0.322-1.217-0.805c0,0-20.425-49.291-23.858-57.58
	c-0.844,8.811-5.482,57.095-5.482,57.095c-0.061,0.678-0.629,1.191-1.304,1.191l-50.302-0.023c-0.381,0-0.74-0.164-0.99-0.449
	c-0.214-0.242-0.327-0.551-0.327-0.863c0-0.064,0.002-0.115,0.012-0.178L151.185,3.916c0.083-0.657,0.645-1.143,1.304-1.143h70.779
	c0.512,0,0.979,0.296,1.192,0.766c0,0,20.142,43.709,23.339,50.645c1.074-7.45,7.251-50.312,7.251-50.312
	c0.095-0.646,0.647-1.127,1.302-1.127h49.792c0.385,0,0.746,0.162,0.993,0.453c0.209,0.237,0.323,0.551,0.323,0.866
	c0,0.062-0.004,0.119-0.012,0.181l-15.18,108.09c-0.09,0.646-0.645,1.125-1.303,1.125L220.585,113.44"/>
<path fill-rule="evenodd" clip-rule="evenodd" stroke="#FFFFFF" stroke-width="2.8346" d="M93.757,108.114
	c-0.232-0.176-0.506-0.266-0.785-0.266c-0.188,0-0.376,0.041-0.552,0.121c-1.355,0.623-12.182,1.824-25.084,1.824
	c-7.526,0-13.73-0.438-17.939-1.262c-12.291-2.379-21.193-5.398-28.024-9.498c-6.313-3.789-10.393-8.277-14.354-12.924
	c-2.577-3.025-4.486-7.014-5.671-11.861C0.233,69.709,0,65.418,0,62.616c0-2.645,0.204-4.396,0.326-5.009
	c1.268-6.487,2.959-12.466,5.021-17.771c2.945-7.575,6.575-13.555,10.795-17.77c4.743-4.744,10.941-8.845,18.415-12.161
	c7.362-3.272,15.607-5.642,24.504-7.046c14.283-2.25,14.913-2.274,22.62-2.555c1.901-0.066,4.266-0.157,7.356-0.295
	C89.054,0.009,90.674,0,90.674,0c9.827,0,19.157,1.037,27.732,3.098c9.104,2.174,15.107,4.971,18.538,6.922
	c5.644,3.217,10.201,7.322,13.555,12.199c4.496,6.556,6.781,14.478,6.781,23.56l-0.014,0.909
	c-0.133,8.292-1.205,15.558-3.188,21.591c-1.605,4.91-3.403,7.803-4.477,9.525l-0.53,0.871l0.033-0.057
	c-3.83,5.893-8.954,10.535-12.582,13.396c-3.951,3.115-7.029,4.848-7.061,4.861c-0.418,0.232-0.675,0.672-0.675,1.152
	c0,0.475,0.26,0.918,0.678,1.15c0,0,21.238,11.779,25.062,13.906c-4.048,1.855-32.162,14.754-33.435,15.34
	C119.9,127.54,93.757,108.114,93.757,108.114 M74.56,91.719c3.766,0,7.479-0.838,11.043-2.494c3.043-1.406,5.281-3.088,6.481-3.992
	c3.343-2.502,6.443-6.84,9.207-12.887c1.555-3.227,2.735-7.227,3.512-11.91c0.653-3.967,1.001-8.382,1.001-12.774
	c0-3.972-0.288-7.807-0.807-10.795c-0.724-4.163-2.536-8.041-5.241-11.189c-2.566-2.993-5.782-5.196-9.303-6.366
	c-1.811-0.604-3.89-0.914-6.181-0.914c-4.857,0-9.042,1.36-9.216,1.417c-0.021,0.005-0.045,0.015-0.064,0.024
	c-5.464,2.104-7.836,4.477-11.77,8.412l-0.181,0.181c-2.262,2.259-4.751,6.522-6.833,11.699c-1.704,4.239-3.93,11.08-4.875,19.645
	c-0.209,1.902-0.313,3.762-0.313,5.51c0,5.461,1.004,10.213,2.983,14.139c1.62,3.215,3.446,4.98,4.322,5.834l0.22,0.213
	c3.841,3.842,8.542,5.963,13.599,6.135C72.942,91.676,73.756,91.719,74.56,91.719"/>
</svg>
